<svg xmlns="http://www.w3.org/2000/svg" version="1.1" xmlns:xlink="http://www.w3.org/1999/xlink" width="1000" height="1000"><g clip-path="url(#SvgjsClipPath1106)"><rect width="1000" height="1000" fill="#000000"></rect><g transform="matrix(14,0,0,14,297,150)"><svg xmlns="http://www.w3.org/2000/svg" version="1.1" xmlns:xlink="http://www.w3.org/1999/xlink" width="29" height="50"><svg width="29" height="50" viewBox="0 0 29 50" fill="none" xmlns="http://www.w3.org/2000/svg">
<path d="M17.2694 1C17.2694 0.447715 17.7171 0 18.2694 0H27.2694C27.8217 0 28.2694 0.447715 28.2694 1V2V4V6V8V10V12V14V16V18V20V30V32V34V36V38V40V42V42.0039V44.0039V46V48V49C28.2694 49.5523 27.8217 50 27.2694 50H25.1583H20.9802C20.5546 50 20.1756 49.7306 20.0358 49.3286L10.2138 21.1001C9.84351 20.0358 8.26937 20.3019 8.26937 21.4288V31.28C8.26937 33.0787 8.59287 34.8627 9.22443 36.5468L10.3143 39.4532C10.9459 41.1373 11.2694 42.9213 11.2694 44.72V49C11.2694 49.5523 10.8217 50 10.2694 50H1.26937C0.717086 50 0.269371 49.5523 0.269371 49V48V46V44V42V40V38V36V34V32V30V20V18V16V14V12V10V8V7.5V5.5V6V4V2V1.00002C0.269371 0.447739 0.717084 2.40081e-05 1.26937 2.22524e-05L7.55843 2.26002e-06C7.98409 9.06895e-07 8.36309 0.26945 8.50293 0.671482L18.3249 28.9096C18.6951 29.974 20.2694 29.708 20.2694 28.5811V18.72C20.2694 16.9213 19.9459 15.1373 19.3143 13.4532L18.2244 10.5468C17.5929 8.86268 17.2694 7.07866 17.2694 5.27998V1Z" fill="white"></path>
</svg></svg></g></g><defs><clipPath id="SvgjsClipPath1106"><rect width="1000" height="1000" x="0" y="0" rx="350" ry="350"></rect></clipPath></defs></svg>